<svg width="11" height="14" viewBox="0 0 11 14" fill="none" xmlns="http://www.w3.org/2000/svg">
<path d="M1.00104 9.57727C0.761967 9.17424 0.58266 8.76061 0.463121 8.33636C0.343583 7.91212 0.283813 7.47727 0.283813 7.03182C0.283813 5.61061 0.789135 4.40152 1.79978 3.40455C2.81042 2.40758 4.04384 1.90909 5.50004 1.90909H5.61414L4.5709 0.890909L5.48374 0L8.09185 2.54545L5.48374 5.09091L4.5709 4.2L5.61414 3.18182H5.50004C4.41332 3.18182 3.48962 3.55568 2.72892 4.30341C1.96822 5.05114 1.58787 5.96061 1.58787 7.03182C1.58787 7.30758 1.62047 7.57803 1.68567 7.84318C1.75088 8.10833 1.84868 8.36818 1.97909 8.62273L1.00104 9.57727ZM5.51634 14L2.90823 11.4545L5.51634 8.90909L6.42918 9.8L5.38593 10.8182H5.50004C6.58675 10.8182 7.51046 10.4443 8.27116 9.69659C9.03186 8.94886 9.4122 8.03939 9.4122 6.96818C9.4122 6.69242 9.3796 6.42197 9.3144 6.15682C9.2492 5.89167 9.15139 5.63182 9.02099 5.37727L9.99903 4.42273C10.2381 4.82576 10.4174 5.23939 10.537 5.66364C10.6565 6.08788 10.7163 6.52273 10.7163 6.96818C10.7163 8.38939 10.2109 9.59848 9.2003 10.5955C8.18965 11.5924 6.95623 12.0909 5.50004 12.0909H5.38593L6.42918 13.1091L5.51634 14Z" fill="white"/>
</svg>
