<svg width="36" height="36" viewBox="0 0 36 36" fill="none" xmlns="http://www.w3.org/2000/svg">
<circle cx="18.2197" cy="18" r="16.5" stroke="white" stroke-width="2"/>
<path d="M17.9995 17.788C16.487 17.788 15.1922 17.2493 14.1151 16.1718C13.0381 15.0944 12.4995 13.7992 12.4995 12.2862C12.4995 10.7732 13.0381 9.47801 14.1151 8.40057C15.1922 7.32314 16.487 6.78442 17.9995 6.78442C19.512 6.78442 20.8068 7.32314 21.8839 8.40057C22.961 9.47801 23.4995 10.7732 23.4995 12.2862C23.4995 13.7992 22.961 15.0944 21.8839 16.1718C20.8068 17.2493 19.512 17.788 17.9995 17.788ZM6.99951 28.7916V24.9403C6.99951 24.1609 7.20003 23.4445 7.60107 22.7912C8.00212 22.1378 8.53493 21.6392 9.19951 21.2954C10.6203 20.5847 12.0641 20.0518 13.5308 19.6964C14.9974 19.3411 16.487 19.1634 17.9995 19.1634C19.512 19.1634 21.0016 19.3411 22.4683 19.6964C23.9349 20.0518 25.3787 20.5847 26.7995 21.2954C27.4641 21.6392 27.9969 22.1378 28.3979 22.7912C28.799 23.4445 28.9995 24.1609 28.9995 24.9403V28.7916H6.99951Z" fill="white"/>
</svg>
